<?xml version="1.0" encoding="UTF-8"?>
<svg width="18px" height="18px" viewBox="0 0 18 18" version="1.1" xmlns="http://www.w3.org/2000/svg" xmlns:xlink="http://www.w3.org/1999/xlink">
    <!-- Generator: Sketch 50.2 (55047) - http://www.bohemiancoding.com/sketch -->
    <title>apple</title>
    <desc>Created with Sketch.</desc>
    <defs></defs>
    <g id="Page-1" stroke="none" stroke-width="1" fill="none" fill-rule="evenodd">
        <g id="上线公告" transform="translate(-282.000000, -543.000000)" fill="#FFFFFF" fill-rule="nonzero">
            <g id="Group-8" transform="translate(240.000000, 527.000000)">
                <g id="apple" transform="translate(42.000000, 16.000000)">
                    <path d="M14.0675542,9.43516011 C14.0444113,7.18644582 15.9009827,6.11030296 15.9832685,6.05630296 C14.9405542,4.53273154 13.3179827,4.32316011 12.7381256,4.30001725 C11.3585542,4.15858868 10.0432685,5.11258868 9.34126846,5.11258868 C8.64183989,5.11258868 7.55926846,4.31930296 6.41369703,4.33987439 C4.90683989,4.36301725 3.51955418,5.21673154 2.74298275,6.56416011 C1.17826846,9.27958868 2.34183989,13.301303 3.86669703,15.506303 C4.61241132,16.5837315 5.50212561,17.7935887 6.66826846,17.7511601 C7.79198275,17.7061601 8.21626846,17.0234458 9.57526846,17.0234458 C10.9342685,17.0234458 11.3161256,17.7511601 12.5041256,17.729303 C13.7139827,17.7061601 14.4789827,16.6300172 15.2182685,15.5500172 C16.0745542,14.2990172 16.4268399,13.0865887 16.448697,13.0261601 C16.4204113,13.0107315 14.0919827,12.1197315 14.0675542,9.43516011 Z" id="Shape"></path>
                    <path d="M12.3680054,2.83371429 C12.9864339,2.08414286 13.4055768,1.04014286 13.2911482,0 C12.3975768,0.036 11.3188625,0.592714286 10.6772911,1.34357143 C10.1025768,2.00828571 9.60243394,3.069 9.73614822,4.08857143 C10.7312911,4.167 11.7495768,3.582 12.3680054,2.83371429 Z" id="Shape"></path>
                </g>
            </g>
        </g>
    </g>
</svg>