<svg xmlns="http://www.w3.org/2000/svg" width="16" height="16" viewBox="0 0 16 16">
  <path fill="#007AFF" d="M12.5044926,8.38680898 C12.5262069,10.7730947 14.5959212,11.5650947 14.621064,11.578809 C14.6016355,11.6325233 14.2884926,12.7102376 13.5273497,13.8222376 C12.8702069,14.7822376 12.1902069,15.738809 11.1147783,15.7593804 C10.0587783,15.778809 9.71934974,15.1319518 8.51134974,15.1319518 C7.30334974,15.1319518 6.92620689,15.738809 5.92734974,15.778809 C4.89077832,15.8165233 4.09992117,14.7410947 3.43706403,13.7833804 C2.08163546,11.8233804 1.04734974,8.24852327 2.43820689,5.83480898 C3.1284926,4.6370947 4.36163546,3.87823756 5.70106403,3.85766613 C6.71934974,3.83938041 7.68163546,4.54452327 8.30334974,4.54452327 C8.92734974,4.54452327 10.0964926,3.69652327 11.3227783,3.82223756 C11.8382069,3.84280898 13.2804926,4.0290947 14.2073497,5.38338041 C14.1342069,5.43138041 12.4839212,6.38795184 12.5044926,8.38680898 Z M10.9937825,2.51885714 C10.4440683,3.184 9.5389254,3.704 8.65435398,3.63428571 C8.53549683,2.728 8.98006826,1.78514286 9.4909254,1.19428571 C10.0612111,0.526857143 11.0200683,0.032 11.814354,-4.35207426e-14 C11.9160683,0.924571429 11.5434968,1.85257143 10.9937825,2.51885714 Z"/>
</svg>
