<?xml version="1.0" encoding="UTF-8"?>
<svg width="16px" height="16px" viewBox="0 0 16 16" version="1.1" xmlns="http://www.w3.org/2000/svg" xmlns:xlink="http://www.w3.org/1999/xlink">
    <!-- Generator: Sketch 52.3 (67297) - http://www.bohemiancoding.com/sketch -->
    <title>apple</title>
    <desc>Created with Sketch.</desc>
    <g id="Page-1" stroke="none" stroke-width="1" fill="none" fill-rule="evenodd">
        <g id="net1" transform="translate(-279.000000, -675.000000)" fill="#FFFFFF" fill-rule="nonzero">
            <g id="Group-7" transform="translate(236.000000, 178.000000)">
                <g id="Group-8-Copy" transform="translate(0.000000, 482.000000)">
                    <g id="apple" transform="translate(43.000000, 15.000000)">
                        <path d="M12.5044926,8.38680898 C12.4839212,6.38795184 14.1342069,5.43138041 14.2073497,5.38338041 C13.2804926,4.0290947 11.8382069,3.84280898 11.3227783,3.82223756 C10.0964926,3.69652327 8.92734974,4.54452327 8.30334974,4.54452327 C7.68163546,4.54452327 6.71934974,3.83938041 5.70106403,3.85766613 C4.36163546,3.87823756 3.1284926,4.6370947 2.43820689,5.83480898 C1.04734974,8.24852327 2.08163546,11.8233804 3.43706403,13.7833804 C4.09992117,14.7410947 4.89077832,15.8165233 5.92734974,15.778809 C6.92620689,15.738809 7.30334974,15.1319518 8.51134974,15.1319518 C9.71934974,15.1319518 10.0587783,15.778809 11.1147783,15.7593804 C12.1902069,15.738809 12.8702069,14.7822376 13.5273497,13.8222376 C14.2884926,12.7102376 14.6016355,11.6325233 14.621064,11.578809 C14.5959212,11.5650947 12.5262069,10.7730947 12.5044926,8.38680898 Z" id="Shape"></path>
                        <path d="M10.9937825,2.51885714 C11.5434968,1.85257143 11.9160683,0.924571429 11.814354,0 C11.0200683,0.032 10.0612111,0.526857143 9.4909254,1.19428571 C8.98006826,1.78514286 8.53549683,2.728 8.65435398,3.63428571 C9.5389254,3.704 10.4440683,3.184 10.9937825,2.51885714 Z" id="Shape"></path>
                    </g>
                </g>
            </g>
        </g>
    </g>
</svg>