<?xml version="1.0" encoding="UTF-8"?>
<svg width="1920px" height="947px" viewBox="0 0 1920 947" version="1.1" xmlns="http://www.w3.org/2000/svg" xmlns:xlink="http://www.w3.org/1999/xlink">
    <!-- Generator: Sketch 50.2 (55047) - http://www.bohemiancoding.com/sketch -->
    <title>background</title>
    <desc>Created with Sketch.</desc>
    <defs>
        <linearGradient x1="-17.1299792%" y1="-43.8811029%" x2="95.5740926%" y2="146.09726%" id="linearGradient-1">
            <stop stop-color="#10105D" offset="0%"></stop>
            <stop stop-color="#4974D9" offset="31.4739301%"></stop>
            <stop stop-color="#53A0FD" offset="49.1836977%"></stop>
            <stop stop-color="#5AD5D6" offset="71.3239784%"></stop>
            <stop stop-color="#EAFFB3" offset="100%"></stop>
        </linearGradient>
        <rect id="path-2" x="0" y="0" width="1932" height="960"></rect>
        <linearGradient x1="109.460025%" y1="119.706262%" x2="-22.7493853%" y2="-21.6800821%" id="linearGradient-4">
            <stop stop-color="#1B3BD8" offset="0%"></stop>
            <stop stop-color="#176CE0" offset="31.4739301%"></stop>
            <stop stop-color="#0B92E7" offset="49.1836977%"></stop>
            <stop stop-color="#0BB6EB" offset="71.3239784%"></stop>
            <stop stop-color="#00E0F2" offset="100%"></stop>
        </linearGradient>
        <rect id="path-5" x="0" y="0" width="1932" height="960"></rect>
        <linearGradient x1="100%" y1="38.7352683%" x2="-13.6201493%" y2="32.2587263%" id="linearGradient-7">
            <stop stop-color="#1B3BD8" offset="0%"></stop>
            <stop stop-color="#176CE0" offset="31.4739301%"></stop>
            <stop stop-color="#0B92E7" offset="49.1836977%"></stop>
            <stop stop-color="#0BB6EB" offset="71.3239784%"></stop>
            <stop stop-color="#00E0F2" offset="100%"></stop>
        </linearGradient>
        <linearGradient x1="109.595889%" y1="94.7985912%" x2="-25.0511337%" y2="7.67698193%" id="linearGradient-8">
            <stop stop-color="#1B3BD8" offset="0%"></stop>
            <stop stop-color="#176CE0" offset="31.4739301%"></stop>
            <stop stop-color="#0B92E7" offset="49.1836977%"></stop>
            <stop stop-color="#0BB6EB" offset="71.3239784%"></stop>
            <stop stop-color="#00E0F2" offset="100%"></stop>
        </linearGradient>
        <linearGradient x1="-11.3193645%" y1="-27.3946712%" x2="100%" y2="106.923773%" id="linearGradient-9">
            <stop stop-color="#1B3BD8" offset="0%"></stop>
            <stop stop-color="#176CE0" offset="31.4739301%"></stop>
            <stop stop-color="#0B92E7" offset="49.1836977%"></stop>
            <stop stop-color="#0BB6EB" offset="71.3239784%"></stop>
            <stop stop-color="#00E0F2" offset="100%"></stop>
        </linearGradient>
        <linearGradient x1="0%" y1="50.0135382%" x2="99.4670074%" y2="50.0135382%" id="linearGradient-10">
            <stop stop-color="#4268CB" offset="0%"></stop>
            <stop stop-color="#4B7CE0" offset="19%"></stop>
            <stop stop-color="#57BEE8" offset="50.59%"></stop>
            <stop stop-color="#57BEE8" offset="90.64%"></stop>
            <stop stop-color="#67D9D4" offset="100%"></stop>
        </linearGradient>
        <linearGradient x1="19.9398791%" y1="-10.8616581%" x2="123.121397%" y2="138.706417%" id="linearGradient-11">
            <stop stop-color="#1B3BD8" offset="0%"></stop>
            <stop stop-color="#176CE0" offset="31.4739301%"></stop>
            <stop stop-color="#0B92E7" offset="49.1836977%"></stop>
            <stop stop-color="#0BB6EB" offset="71.3239784%"></stop>
            <stop stop-color="#00E0F2" offset="100%"></stop>
        </linearGradient>
        <linearGradient x1="-8.37721463%" y1="50.0135362%" x2="99.4670074%" y2="50.0135382%" id="linearGradient-12">
            <stop stop-color="#54AAF6" offset="0%"></stop>
            <stop stop-color="#529EFB" offset="24.2891921%"></stop>
            <stop stop-color="#4976DB" offset="58.2087751%"></stop>
            <stop stop-color="#3969D3" offset="92.4223266%"></stop>
            <stop stop-color="#456DD0" offset="100%"></stop>
        </linearGradient>
        <path d="M664.707043,364.866408 L139.620858,1274.34236 C739.858082,1476.03432 1317.29995,1405.20901 1871.94646,1061.86641 L1459.71836,823.866408 L664.707043,364.866408 Z" id="path-13"></path>
        <path d="M412.707043,415.866408 L-112.379142,1325.34236 C487.858082,1527.03432 1065.29995,1456.20901 1619.94646,1112.86641 L1207.71836,874.866408 L412.707043,415.866408 Z" id="path-15"></path>
    </defs>
    <g id="Page-1" stroke="none" stroke-width="1" fill="none" fill-rule="evenodd">
        <g id="上线公告">
            <g id="Group-9" transform="translate(-305.000000, -686.000000)">
                <g id="background" transform="translate(305.000000, 686.000000)">
                    <mask id="mask-3" fill="white">
                        <use xlink:href="#path-2"></use>
                    </mask>
                    <use id="Mask" fill="url(#linearGradient-1)" transform="translate(966.000000, 480.000000) rotate(-360.000000) translate(-966.000000, -480.000000) " xlink:href="#path-2"></use>
                    <mask id="mask-6" fill="white">
                        <use xlink:href="#path-5"></use>
                    </mask>
                    <use id="Mask-Copy" fill="url(#linearGradient-4)" transform="translate(966.000000, 480.000000) rotate(-360.000000) translate(-966.000000, -480.000000) " xlink:href="#path-5"></use>
                    <path d="M2000,960 C2000,1079.67442 1902.67442,1177 1783,1177 C1663.32558,1177 1566,1080.03488 1566,960 C1566,840.325581 1663.32558,743 1783,743 C1903.03488,743 2000,840.325581 2000,960 Z" id="Shape" fill="url(#linearGradient-7)" fill-rule="nonzero" opacity="0.149999991" mask="url(#mask-6)"></path>
                    <path d="M301,69.5 C301,179.523256 211.523256,269 101.5,269 C-8.52325581,269 -98,179.854651 -98,69.5 C-98,-40.5232558 -8.52325581,-130 101.5,-130 C211.854651,-130 301,-40.5232558 301,69.5 Z" id="Shape" fill="url(#linearGradient-8)" fill-rule="nonzero" opacity="0.0999207428" mask="url(#mask-6)"></path>
                    <path d="M163,708.5 C163,725.320598 149.320598,739 132.5,739 C115.679402,739 102,725.371262 102,708.5 C102,691.679402 115.679402,678 132.5,678 C149.371262,678 163,691.679402 163,708.5 Z" id="Shape-Copy" fill="url(#linearGradient-9)" fill-rule="nonzero" opacity="0.0914855072" mask="url(#mask-6)"></path>
                    <g id="oval" opacity="0.228091033" mask="url(#mask-6)" fill="url(#linearGradient-11)" fill-rule="nonzero">
                        <g transform="translate(1729.000000, 139.000000)" id="Shape">
                            <path d="M107,53.5 C107,83.0049834 83.0049834,107 53.5,107 C23.9950166,107 0,83.0938538 0,53.5 C0,23.9950166 23.9950166,0 53.5,0 C83.0938538,0 107,23.9950166 107,53.5 Z"></path>
                        </g>
                    </g>
                    <g id="oval" opacity="0.258152174" mask="url(#mask-6)" fill="url(#linearGradient-12)" fill-rule="nonzero">
                        <g transform="translate(959.000000, 216.000000) scale(-1, 1) translate(-959.000000, -216.000000) translate(913.000000, 170.000000)" id="Shape">
                            <path d="M92,46 C92,71.3687708 71.3687708,92 46,92 C20.6312292,92 0,71.4451827 0,46 C0,20.6312292 20.6312292,0 46,0 C71.4451827,0 92,20.6312292 92,46 Z"></path>
                        </g>
                    </g>
                </g>
                <g id="Group-5">
                    <mask id="mask-14" fill="white">
                        <use xlink:href="#path-13"></use>
                    </mask>
                    <use id="Mask" fill="#FFFFFF" opacity="0.0918251812" transform="translate(1005.783657, 875.582001) rotate(-30.000000) translate(-1005.783657, -875.582001) " xlink:href="#path-13"></use>
                    <mask id="mask-16" fill="white">
                        <use xlink:href="#path-15"></use>
                    </mask>
                    <use id="Mask" fill="#FFFFFF" transform="translate(753.783657, 926.582001) rotate(-30.000000) translate(-753.783657, -926.582001) " xlink:href="#path-15"></use>
                </g>
            </g>
        </g>
    </g>
</svg>