<?xml version="1.0" encoding="UTF-8"?>
<svg width="116px" height="60px" viewBox="0 0 116 60" version="1.1" xmlns="http://www.w3.org/2000/svg" xmlns:xlink="http://www.w3.org/1999/xlink">
    <!-- Generator: Sketch 50.2 (55047) - http://www.bohemiancoding.com/sketch -->
    <title>logo</title>
    <desc>Created with Sketch.</desc>
    <defs></defs>
    <g id="Page-1" stroke="none" stroke-width="1" fill="none" fill-rule="evenodd">
        <g id="上线公告" transform="translate(-240.000000, -28.000000)" fill="#0A60EC">
            <g id="Group-6" transform="translate(240.000000, 28.000000)">
                <path d="M0,14.5913394 L19.7020183,10.164 L17.7385321,59.8340917 L0,14.5913394 Z M24.2043853,9.31150459 L63.6689725,-5.50458712e-05 L18.3612661,59.8997615 L24.2043853,9.31150459 Z M58.032,43.6297431 L64.7718165,26.8473578 L65.972367,26.8473578 L58.6870459,44.5726789 L57.2954862,44.5726789 L50.0371376,26.8473578 L51.2921835,26.8473578 L57.9775046,43.6297431 L58.032,43.6297431 Z M72.766789,44.572844 L72.766789,26.8469725 L73.9673394,26.8469725 L73.9673394,44.572844 L72.766789,44.572844 Z M80.7618165,27.7908991 L80.7618165,26.8474128 L95.6875046,26.8474128 L95.6875046,27.7908991 L88.8111743,27.7908991 L88.8111743,44.5727339 L87.6106239,44.5727339 L87.6106239,27.7908991 L80.7618165,27.7908991 Z M102.481596,26.8473578 L115.579211,26.8473578 L115.579211,27.7913945 L103.682147,27.7913945 L103.682147,34.8906606 L114.86967,34.8906606 L114.86967,35.8341468 L103.682147,35.8341468 L103.682147,43.6297431 L115.715725,43.6297431 L115.715725,44.5726789 L102.481596,44.5726789 L102.481596,26.8473578 Z" id="Combined-Shape"></path>
            </g>
        </g>
    </g>
</svg>