<?xml version="1.0" encoding="UTF-8"?>
<svg width="18px" height="18px" viewBox="0 0 18 18" version="1.1" xmlns="http://www.w3.org/2000/svg" xmlns:xlink="http://www.w3.org/1999/xlink">
    <!-- Generator: Sketch 50.2 (55047) - http://www.bohemiancoding.com/sketch -->
    <title>newpage</title>
    <desc>Created with Sketch.</desc>
    <defs></defs>
    <g id="Page-1" stroke="none" stroke-width="1" fill="none" fill-rule="evenodd">
        <g id="上线公告" transform="translate(-594.000000, -659.000000)" fill="#195ADD">
            <g id="Group-7-Copy" transform="translate(594.000000, 659.000000)">
                <path d="M17.5125,0 L10.35,0 C10.05,0 9.75,0.1875 9.75,0.4875 L9.75,1.6125 C9.75,1.9125 10.0125,2.25 10.35,2.25 L13.3125,2.25 C13.65,2.25 13.8375,2.625 13.575,2.85 L7.2,9.225 C6.975,9.45 6.975,9.7875 7.2,10.0125 L7.9875,10.8 C8.2125,11.025 8.55,11.025 8.775,10.8 L15.15,4.425 C15.375,4.2 15.75,4.35 15.75,4.6875 L15.75,7.65 C15.75,7.95 16.05,8.2875 16.35,8.2875 L17.4375,8.2875 C17.7375,8.2875 18,7.95 18,7.65 L18,0.525 C18,0.1875 17.8125,2.1649349e-15 17.5125,2.1649349e-15 L17.5125,0 Z M12.8625,8.8125 L11.5875,10.125 C11.3625,10.35 11.25,10.6125 11.25,10.9125 L11.25,15.1875 C11.25,15.4875 10.9875,15.75 10.6875,15.75 L2.8125,15.75 C2.5125,15.75 2.25,15.4875 2.25,15.1875 L2.25,7.3125 C2.25,7.0125 2.5125,6.75 2.8125,6.75 L7.125,6.75 C7.425,6.75 7.725,6.6375 7.9125,6.4125 L9.1875,5.1375 C9.4125,4.9125 9.2625,4.5 8.925,4.5 L1.5,4.5 C0.675,4.5 0,5.175 0,6 L0,16.5 C0,17.325 0.675,18 1.5,18 L12,18 C12.825,18 13.5,17.325 13.5,16.5 L13.5,9.075 C13.5,8.7375 13.0875,8.5875 12.8625,8.8125 Z" id="Mask"></path>
            </g>
        </g>
    </g>
</svg>