<?xml version="1.0" encoding="UTF-8"?>
<svg width="634px" height="412px" viewBox="0 0 634 412" version="1.1" xmlns="http://www.w3.org/2000/svg" xmlns:xlink="http://www.w3.org/1999/xlink">
    <!-- Generator: Sketch 52.4 (67378) - http://www.bohemiancoding.com/sketch -->
    <title>Group 2</title>
    <desc>Created with Sketch.</desc>
    <defs>
        <linearGradient x1="17.9316834%" y1="15.4187445%" x2="30.8711402%" y2="107.695439%" id="linearGradient-1">
            <stop stop-color="#00319A" offset="0%"></stop>
            <stop stop-color="#1D5ADD" stop-opacity="0" offset="100%"></stop>
        </linearGradient>
        <linearGradient x1="64.1273969%" y1="27.2279685%" x2="58.0840092%" y2="84.7455508%" id="linearGradient-2">
            <stop stop-color="#00319A" offset="0%"></stop>
            <stop stop-color="#1D5ADD" offset="100%"></stop>
        </linearGradient>
        <linearGradient x1="50%" y1="20.6129725%" x2="61.7326751%" y2="70.1313767%" id="linearGradient-3">
            <stop stop-color="#00319A" offset="0%"></stop>
            <stop stop-color="#1D5ADD" offset="100%"></stop>
        </linearGradient>
        <linearGradient x1="32.7106429%" y1="27.0571159%" x2="56.3227856%" y2="100%" id="linearGradient-4">
            <stop stop-color="#00319A" offset="0%"></stop>
            <stop stop-color="#1D5ADD" stop-opacity="0" offset="100%"></stop>
        </linearGradient>
        <linearGradient x1="36.8994152%" y1="70.3656916%" x2="2.70811371%" y2="-27.4163408%" id="linearGradient-5">
            <stop stop-color="#00319A" offset="0%"></stop>
            <stop stop-color="#1D5ADD" offset="100%"></stop>
        </linearGradient>
        <path d="M4.1423,24.6745 C4.1483,24.7465 4.1493,24.8255 4.1463,24.9085 C4.1433,24.9925 4.1463,25.0885 4.1553,25.1975 C4.2663,26.5705 4.7323,27.9485 5.5543,29.3305 C6.3753,30.7145 7.3563,31.7575 8.4963,32.4615 C8.9733,32.7555 9.4273,32.9505 9.8593,33.0445 C10.2893,33.1395 10.6563,33.0995 10.9573,32.9235 C11.2573,32.7495 11.4843,32.4515 11.6383,32.0305 C11.7903,31.6105 11.8363,31.0215 11.7753,30.2615 C11.6723,28.9965 11.2893,27.8595 10.6273,26.8495 C9.9633,25.8385 9.1763,24.8125 8.2653,23.7685 L6.6033,21.8665 C5.9103,21.0955 5.2353,20.2415 4.5783,19.3035 C3.9213,18.3655 3.3213,17.3525 2.7813,16.2625 C2.2393,15.1735 1.7793,13.9955 1.4013,12.7335 C1.0223,11.4685 0.7733,10.0965 0.6533,8.6135 C0.5073,6.8065 0.5833,5.3255 0.8853,4.1725 C1.1843,3.0185 1.6533,2.1825 2.2923,1.6675 C2.9303,1.1525 3.7053,0.9345 4.6183,1.0175 C5.5303,1.0995 6.5363,1.4805 7.6363,2.1585 C8.7133,2.8225 9.7303,3.6925 10.6843,4.7605 C11.6373,5.8295 12.4763,7.0185 13.2033,8.3235 C13.9293,9.6315 14.5293,11.0145 15.0023,12.4745 C15.4753,13.9345 15.7693,15.3865 15.8873,16.8325 C15.9253,17.3025 15.9323,17.6335 15.9093,17.8235 L11.9273,15.3655 L11.8923,14.9335 C11.8333,14.2095 11.6883,13.5105 11.4563,12.8345 C11.2233,12.1595 10.9313,11.5315 10.5803,10.9545 C10.2273,10.3765 9.8363,9.8615 9.4053,9.4055 C8.9743,8.9515 8.5413,8.5895 8.1053,8.3205 C7.6703,8.0515 7.2573,7.8825 6.8683,7.8135 C6.4783,7.7455 6.1423,7.7955 5.8603,7.9645 C5.5793,8.1345 5.3713,8.4275 5.2373,8.8425 C5.1033,9.2575 5.0643,9.8085 5.1203,10.4955 C5.2143,11.6525 5.5793,12.7625 6.2173,13.8245 C6.8553,14.8885 7.6633,15.9795 8.6403,17.0975 L10.5273,19.2405 C11.1793,19.9875 11.8153,20.7815 12.4353,21.6285 C13.0553,22.4755 13.6233,23.4105 14.1393,24.4325 C14.6553,25.4545 15.0963,26.5765 15.4613,27.7975 C15.8263,29.0205 16.0703,30.3885 16.1933,31.9065 C16.3453,33.7865 16.2673,35.3275 15.9623,36.5285 C15.6553,37.7305 15.1703,38.5985 14.5033,39.1315 C13.8373,39.6645 13.0173,39.8705 12.0423,39.7495 C11.0663,39.6285 9.9983,39.2095 8.8383,38.4925 C7.7803,37.8405 6.7513,36.9895 5.7503,35.9445 C4.7493,34.8965 3.8453,33.7115 3.0383,32.3895 C2.2313,31.0675 1.5643,29.6335 1.0363,28.0885 C0.5063,26.5425 0.1743,24.9385 0.0393,23.2755 C0.0193,23.0235 0.0063,22.8095 0.0023,22.6345 C-0.0017,22.4605 -0.0017,22.2895 0.0053,22.1205 L4.1423,24.6745 Z" id="path-6"></path>
        <filter x="-12.3%" y="-5.2%" width="124.6%" height="110.3%" filterUnits="objectBoundingBox" id="filter-7">
            <feGaussianBlur stdDeviation="1.5" in="SourceAlpha" result="shadowBlurInner1"></feGaussianBlur>
            <feOffset dx="0" dy="1" in="shadowBlurInner1" result="shadowOffsetInner1"></feOffset>
            <feComposite in="shadowOffsetInner1" in2="SourceAlpha" operator="arithmetic" k2="-1" k3="1" result="shadowInnerInner1"></feComposite>
            <feColorMatrix values="0 0 0 0 0   0 0 0 0 0   0 0 0 0 0  0 0 0 0.5 0" type="matrix" in="shadowInnerInner1"></feColorMatrix>
        </filter>
        <path d="M24.7834,27.4225 L28.0174,29.4185 C29.0754,30.0715 29.9194,30.1545 30.5494,29.6675 C31.1794,29.1815 31.4244,28.0715 31.2834,26.3355 C31.1724,24.9625 30.8334,23.8175 30.2674,22.9015 C29.7004,21.9855 28.9194,21.2185 27.9234,20.6045 L25.0004,18.7995 L24.7834,27.4225 Z M24.4714,42.1675 L28.0794,44.3955 C29.3244,45.1625 30.3204,45.3065 31.0694,44.8235 C31.8174,44.3415 32.1164,43.1605 31.9634,41.2795 C31.7174,38.2445 30.3914,35.9835 27.9864,34.4995 L24.6894,32.4645 L24.4714,42.1675 Z M20.7214,10.8535 L29.0894,16.0185 C30.1464,16.6705 31.0714,17.4475 31.8634,18.3495 C32.6554,19.2495 33.3144,20.2155 33.8414,21.2435 C34.3674,22.2735 34.7744,23.3385 35.0614,24.4435 C35.3474,25.5465 35.5364,26.6605 35.6274,27.7795 C35.7294,29.0465 35.6934,30.1225 35.5194,31.0115 C35.3444,31.8995 35.0714,32.5875 34.6974,33.0785 C34.3234,33.5685 33.8904,33.8865 33.4004,34.0295 C32.9094,34.1725 32.4214,34.1635 31.9354,34.0005 L31.9044,34.3425 C32.4304,34.7705 32.9444,35.3275 33.4424,36.0125 C33.9414,36.6985 34.3994,37.4875 34.8164,38.3795 C35.2334,39.2735 35.5894,40.2475 35.8814,41.3035 C36.1734,42.3605 36.3654,43.4485 36.4564,44.5685 C36.6024,46.3765 36.5234,47.8295 36.2184,48.9295 C35.9124,50.0275 35.4194,50.7985 34.7354,51.2335 C34.0524,51.6705 33.2054,51.7995 32.1964,51.6225 C31.1874,51.4465 30.0504,50.9685 28.7854,50.1875 L20.0144,44.7735 L20.7214,10.8535 Z" id="path-8"></path>
        <filter x="-12.1%" y="-4.9%" width="124.2%" height="109.8%" filterUnits="objectBoundingBox" id="filter-9">
            <feGaussianBlur stdDeviation="1.5" in="SourceAlpha" result="shadowBlurInner1"></feGaussianBlur>
            <feOffset dx="0" dy="1" in="shadowBlurInner1" result="shadowOffsetInner1"></feOffset>
            <feComposite in="shadowOffsetInner1" in2="SourceAlpha" operator="arithmetic" k2="-1" k3="1" result="shadowInnerInner1"></feComposite>
            <feColorMatrix values="0 0 0 0 0   0 0 0 0 0   0 0 0 0 0  0 0 0 0.5 0" type="matrix" in="shadowInnerInner1"></feColorMatrix>
        </filter>
        <path d="M45.0974,31.6168 L44.8074,42.9758 L47.6384,44.7228 C48.9854,45.5548 49.9544,45.6638 50.5454,45.0498 C51.1354,44.4348 51.4424,43.4318 51.4684,42.0398 C51.4864,41.7758 51.4934,41.4978 51.4894,41.2028 C51.4844,40.9078 51.4714,40.6168 51.4474,40.3268 C51.3154,38.6998 50.9304,37.2778 50.2894,36.0578 C49.6484,34.8388 48.8304,33.9218 47.8344,33.3058 L45.0974,31.6168 Z M40.0764,57.1568 L40.7844,23.2378 L48.3734,27.9218 C50.5094,29.2398 52.2254,31.2188 53.5234,33.8558 C54.8204,36.4948 55.5994,39.4228 55.8604,42.6378 C55.8984,43.1098 55.9214,43.5698 55.9284,44.0188 C55.9354,44.4708 55.9384,44.9358 55.9384,45.4168 C55.9064,46.9768 55.7334,48.3038 55.4184,49.3968 C55.1034,50.4898 54.6324,51.3068 54.0074,51.8478 C53.3814,52.3878 52.5924,52.6228 51.6404,52.5508 C50.6894,52.4788 49.5704,52.0468 48.2854,51.2528 L44.7394,49.0638 L44.4934,59.8838 L40.0764,57.1568 Z" id="path-10"></path>
        <filter x="-12.6%" y="-5.5%" width="125.2%" height="110.9%" filterUnits="objectBoundingBox" id="filter-11">
            <feGaussianBlur stdDeviation="1.5" in="SourceAlpha" result="shadowBlurInner1"></feGaussianBlur>
            <feOffset dx="0" dy="1" in="shadowBlurInner1" result="shadowOffsetInner1"></feOffset>
            <feComposite in="shadowOffsetInner1" in2="SourceAlpha" operator="arithmetic" k2="-1" k3="1" result="shadowInnerInner1"></feComposite>
            <feColorMatrix values="0 0 0 0 0   0 0 0 0 0   0 0 0 0 0  0 0 0 0.5 0" type="matrix" in="shadowInnerInner1"></feColorMatrix>
        </filter>
    </defs>
    <g id="Page-1" stroke="none" stroke-width="1" fill="none" fill-rule="evenodd">
        <g id="net1-copy-3" transform="translate(-1055.000000, -200.000000)">
            <g id="Group-2-Copy" transform="translate(1055.000000, 200.000000)">
                <polygon id="Fill-1" fill="url(#linearGradient-1)" points="303.611244 288.571702 513.492393 411.185171 633.882353 360 406.901072 229.123665"></polygon>
                <path d="M136.579277,178.692094 C129.4806,178.692094 123.705982,184.467586 123.705982,191.565389 C123.705982,198.664067 129.4806,204.438684 136.579277,204.438684 C143.677955,204.438684 149.452573,198.664067 149.452573,191.565389 C149.452573,184.467586 143.677955,178.692094 136.579277,178.692094 M136.579277,209.956185 C126.438059,209.956185 118.188481,201.705732 118.188481,191.565389 C118.188481,181.424171 126.438059,173.174592 136.579277,173.174592 C146.720496,173.174592 154.970074,181.424171 154.970074,191.565389 C154.970074,201.705732 146.720496,209.956185 136.579277,209.956185 Z M472.999234,177.211227 C472.999234,181.782472 469.293789,185.487042 464.723419,185.487042 C460.153049,185.487042 456.447604,181.782472 456.447604,177.211227 C456.447604,172.639983 460.153049,168.935413 464.723419,168.935413 C469.293789,168.935413 472.999234,172.639983 472.999234,177.211227 Z M128.570024,84.6952629 C128.570024,88.2502863 125.6884,91.1319105 122.133376,91.1319105 C118.578353,91.1319105 115.696729,88.2502863 115.696729,84.6952629 C115.696729,81.1402395 118.578353,78.2586153 122.133376,78.2586153 C125.6884,78.2586153 128.570024,81.1402395 128.570024,84.6952629 Z M412.460027,164.839046 C412.460027,166.362503 411.22517,167.59736 409.701714,167.59736 C408.178257,167.59736 406.942526,166.362503 406.942526,164.839046 C406.942526,163.31559 408.178257,162.080733 409.701714,162.080733 C411.22517,162.080733 412.460027,163.31559 412.460027,164.839046 Z M494.187261,248.016012 L475.402045,228.364123 L456.263513,238.779073 L453.626761,233.933222 L476.471613,221.499823 L494.417266,240.271921 L524.235736,212.569849 L527.989281,216.611994 L494.187261,248.016012 Z M169.211157,96.5720146 L163.962141,94.8736491 L173.185087,66.3634982 L147.964972,55.2559084 L158.652781,28.5560645 L128.563202,21.1364289 L129.88289,15.7789693 L166.131885,24.7176887 L155.068023,52.3550442 L179.968929,63.3227069 L169.211157,96.5720146 Z M81.8348027,99.2883498 C65.6880875,88.5900469 70.9021218,66.5532743 71.132127,65.6201353 L76.4904612,66.9354503 C76.4432358,67.1269755 71.9953024,86.1500677 84.8825903,94.6891202 L81.8348027,99.2883498 Z M542.531469,161.173043 L537.769574,158.391117 C547.537362,141.663704 569.834749,145.624516 570.779257,145.801174 L569.768283,151.225099 C569.568887,151.189243 550.329782,147.823121 542.531469,161.173043 Z M153.390734,244.862842 L148.217803,242.941468 C148.289516,242.749943 155.607704,223.825674 178.006538,226.249912 L177.415346,231.73418 C159.219573,229.777824 153.44583,244.711546 153.390734,244.862842 Z M410.541889,75.7482353 C446.800504,51.1953982 435.593216,25.8161166 439.477068,21.1784071 C443.36092,16.5389485 459.346719,27.8721707 458.062014,31.3187507 C442.509989,73.0502655 407.450374,77.8427694 410.541889,75.7482353 Z" id="Combined-Shape" fill="#FFFFFF" style="mix-blend-mode: screen;" opacity="0.895870536"></path>
                <path d="M535.308781,97.6463925 C532.772602,97.6463925 530.710426,99.7085685 530.710426,102.243873 C530.710426,104.779178 532.772602,106.841353 535.308781,106.841353 C537.844085,106.841353 539.906261,104.779178 539.906261,102.243873 C539.906261,99.7085685 537.844085,97.6463925 535.308781,97.6463925 M535.308781,108.680521 C531.759005,108.680521 528.872133,105.792775 528.872133,102.243873 C528.872133,98.6949714 531.759005,95.8072254 535.308781,95.8072254 C538.857682,95.8072254 541.744554,98.6949714 541.744554,102.243873 C541.744554,105.792775 538.857682,108.680521 535.308781,108.680521 Z M408.747498,44.8295888 C408.747498,48.8927225 405.453089,52.1862572 401.39083,52.1862572 C397.327696,52.1862572 394.035036,48.8927225 394.035036,44.8295888 C394.035036,40.766455 397.327696,37.4729204 401.39083,37.4729204 C405.453089,37.4729204 408.747498,40.766455 408.747498,44.8295888 Z M29.8250286,230.031442 C29.8250286,234.094576 26.531494,237.387236 22.4683602,237.387236 C18.4052264,237.387236 15.1116918,234.094576 15.1116918,230.031442 C15.1116918,225.968308 18.4052264,222.674774 22.4683602,222.674774 C26.531494,222.674774 29.8250286,225.968308 29.8250286,230.031442 Z M545.667498,244.142917 C545.667498,247.18983 543.19691,249.660419 540.149997,249.660419 C537.103084,249.660419 534.632496,247.18983 534.632496,244.142917 C534.632496,241.096879 537.103084,238.625416 540.149997,238.625416 C543.19691,238.625416 545.667498,241.096879 545.667498,244.142917 Z M200.903513,20.0788423 C200.903513,21.6031733 199.668656,22.8371556 198.145199,22.8371556 C196.621743,22.8371556 195.386011,21.6031733 195.386011,20.0788423 C195.386011,18.5553857 196.621743,17.3205289 198.145199,17.3205289 C199.668656,17.3205289 200.903513,18.5553857 200.903513,20.0788423 Z M40.2410286,175.579153 L25.0029651,143.512229 L6.06820198,171.156581 L-0.000262363353,166.998996 L26.159113,128.805014 L42.2078792,162.576425 L59.0979573,144.216237 L74.4785716,169.773052 L68.1766039,173.565951 L57.8604768,156.427502 L40.2410286,175.579153 Z" id="Combined-Shape" fill="#54BBFC" style="mix-blend-mode: screen;"></path>
                <path d="M199.202699,264.966259 C196.261605,264.966259 193.868852,267.358138 193.868852,270.300106 C193.868852,273.240325 196.261605,275.632204 199.202699,275.632204 C202.143792,275.632204 204.535671,273.240325 204.535671,270.300106 C204.535671,267.358138 202.143792,264.966259 199.202699,264.966259 M199.202699,277.840429 C195.045114,277.840429 191.662376,274.457691 191.662376,270.300106 C191.662376,266.141647 195.045114,262.759783 199.202699,262.759783 C203.360283,262.759783 206.743021,266.141647 206.743021,270.300106 C206.743021,274.457691 203.360283,277.840429 199.202699,277.840429 Z M176.834386,152.238434 C176.834386,156.808804 173.128941,160.514249 168.558572,160.514249 C163.988202,160.514249 160.282757,156.808804 160.282757,152.238434 C160.282757,147.66719 163.988202,143.962619 168.558572,143.962619 C173.128941,143.962619 176.834386,147.66719 176.834386,152.238434 Z M355.14238,3.63329516 C355.14238,5.15675169 353.906649,6.39160854 352.384067,6.39160854 C350.86061,6.39160854 349.624004,5.15675169 349.624004,3.63329516 C349.624004,2.10983863 350.86061,0.87498178 352.384067,0.87498178 C353.906649,0.87498178 355.14238,2.10983863 355.14238,3.63329516 Z M63.4356106,212.332148 C63.4356106,213.855604 62.2007538,215.090461 60.6772972,215.090461 C59.1538407,215.090461 57.9181093,213.855604 57.9181093,212.332148 C57.9181093,210.808691 59.1538407,209.573834 60.6772972,209.573834 C62.2007538,209.573834 63.4356106,210.808691 63.4356106,212.332148 Z M195.523927,195.243548 C195.523927,196.767005 194.28907,198.001862 192.765614,198.001862 C191.242157,198.001862 190.006426,196.767005 190.006426,195.243548 C190.006426,193.720092 191.242157,192.485235 192.765614,192.485235 C194.28907,192.485235 195.523927,193.720092 195.523927,195.243548 Z M304.560999,39.2065299 C304.560999,41.7453326 302.502322,43.8040104 299.963519,43.8040104 C297.423842,43.8040104 295.365164,41.7453326 295.365164,39.2065299 C295.365164,36.6668527 297.423842,34.6090495 299.963519,34.6090495 C302.502322,34.6090495 304.560999,36.6668527 304.560999,39.2065299 Z M564.405314,199.841728 C564.405314,202.380531 562.346636,204.439209 559.807833,204.439209 C557.269031,204.439209 555.209478,202.380531 555.209478,199.841728 C555.209478,197.302051 557.269031,195.243373 559.807833,195.243373 C562.346636,195.243373 564.405314,197.302051 564.405314,199.841728 Z M446.64501,142.524518 C446.64501,145.064196 444.586332,147.121999 442.046655,147.121999 C439.507852,147.121999 437.449174,145.064196 437.449174,142.524518 C437.449174,139.984841 439.507852,137.927038 442.046655,137.927038 C444.586332,137.927038 446.64501,139.984841 446.64501,142.524518 Z M468.27888,105.166776 L465.848521,77.9352087 L492.946282,77.8993524 L484.61712,48.5312733 L515.753528,46.7358334 L507.276568,25.0663696 L514.126876,22.3867652 L526.299661,53.4960625 L494.196881,55.3474732 L502.677339,85.2429027 L473.890832,85.2805081 L475.606688,104.513491 L468.27888,105.166776 Z M407.784974,281.446788 L402.668889,279.381989 C404.991679,273.627486 405.205943,268.638209 403.302059,264.552337 C400.437052,258.403415 393.766901,256.169828 393.698686,256.147965 L395.408421,250.901572 C395.774855,251.021385 404.437218,253.923998 408.303579,262.222551 C410.879113,267.750547 410.705079,274.217803 407.784974,281.446788 Z M216.407088,43.4942467 L213.751096,38.6597647 C219.169774,35.6828152 222.485172,31.9686247 223.606338,27.6212639 C225.288087,21.0980364 221.526672,15.0418157 221.489066,14.9805976 L226.135521,12.0062717 C226.344537,12.3307277 231.218374,20.0573285 228.966422,28.928708 C227.465703,34.8406288 223.239904,39.7407017 216.407088,43.4942467 Z M447.337649,217.249799 C423.808904,212.806238 418.186457,191.258336 417.958201,190.342688 L423.313912,189.010757 L420.636931,189.67716 L423.312162,189.004635 C423.50806,189.780356 428.374901,208.053964 448.360866,211.827623 L447.337649,217.249799 Z" id="Combined-Shape" fill="#8DB0EE"></path>
                <polygon id="Fill-4" fill="#54BBFC" points="186.91255 116.386832 303.611769 183.76349 420.310988 116.386832 303.597776 49.002303"></polygon>
                <polygon id="Fill-5" fill="#0BA6E9" points="186.91255 116.386832 186.892435 146.320741 303.597776 213.700023 303.611769 183.76349"></polygon>
                <polygon id="Fill-6" fill="#137CE3" points="420.311338 116.386832 420.302592 146.326863 303.598126 213.700023 303.612119 183.76349"></polygon>
                <polygon id="Fill-7" fill="#0BA6E9" points="199.859044 153.805618 199.879159 228.692864 303.611507 288.571178 303.598388 213.700548"></polygon>
                <polygon id="Fill-8" fill="#137CE3" points="407.345166 153.806842 407.336421 228.686218 303.611944 288.571527 303.597951 213.700023"></polygon>
                <polygon id="Fill-9" fill="url(#linearGradient-2)" opacity="0.7" points="199.859044 153.805618 199.899273 168.779569 303.591392 228.692864 303.598388 213.700548"></polygon>
                <polygon id="Fill-10" fill="url(#linearGradient-3)" opacity="0.7" points="303.591217 228.693214 407.324439 168.801782 407.345428 153.806842 303.598213 213.700023"></polygon>
                <polygon id="Fill-12" fill="url(#linearGradient-4)" opacity="0.404854911" points="277.410765 132.665778 334.849974 165.836377 389.101468 134.406122 330.662655 101.532868"></polygon>
                <path d="M268.515073,129.18168 C266.432783,130.384179 266.433657,132.35103 268.517697,133.550905 L273.90664,136.653789 C275.99068,137.854538 279.399654,137.852789 281.482819,136.65029 L338.740997,103.591634 C340.824162,102.389135 340.824162,100.42141 338.740997,99.218911 L333.348556,96.104658 C331.265391,94.9021593 327.858166,94.9030338 325.775875,96.1055325 L268.515073,129.18168 Z" id="Fill-15" fill="#000524"></path>
                <path d="M329.292069,95.5514211 L329.283323,49.2267985 L290.393204,71.6492452 L277.41059,94.1171681 L277.41059,124.062447 L277.41059,124.077314 L277.43945,137.566288 C278.992641,137.565414 280.544958,137.226091 281.72122,136.545695 L295.124489,128.807725 L329.293818,109.080625 L329.292069,95.5514211 Z" id="Fill-17" fill="#FFFFFF"></path>
                <path d="M287.14051,87.6258615 L313.105737,72.6344196 L313.105737,75.5370328 L287.158001,90.5276002 L287.14051,87.6258615 Z M287.14051,99.6649287 L313.105737,84.6734867 L313.105737,87.5760999 L287.158001,102.566667 L287.14051,99.6649287 Z M287.14051,111.703646 L313.105737,96.7122041 L313.105737,99.6148173 L287.158001,114.605385 L287.14051,111.703646 Z M287.14051,123.715777 L313.105737,108.724335 L313.105737,111.626948 L287.158001,126.616641 L287.14051,123.715777 Z" id="Combined-Shape" fill="#DEECFF"></path>
                <path d="M315.765319,69.0776707 L321.681106,65.6029355 L321.681106,72.9885883 L315.787106,76.4498264 L315.765319,69.0776707 Z M315.765319,81.1167378 L321.681106,77.6420026 L321.681106,85.0276554 L315.787106,88.4888935 L315.765319,81.1167378 Z M315.765319,93.1553677 L321.681106,89.6806325 L321.681106,97.0662853 L315.787106,100.527523 L315.765319,93.1553677 Z M315.765319,105.167586 L321.681106,101.692851 L321.681106,109.078504 L315.787106,112.539742 L315.765319,105.167586 Z" id="Combined-Shape" stroke="#DEECFF"></path>
                <path d="M329.29373,109.08045 L329.254376,106.166467 L277.410503,135.809154 C277.410503,135.809154 277.429743,136.873474 277.440237,137.566113 C279.04765,137.591475 280.502018,137.249528 281.722007,136.546395 L329.29373,109.08045 Z" id="Fill-37" fill="url(#linearGradient-5)" opacity="0.782756696"></path>
                <polyline id="Fill-39" fill="#1A4DDB" points="290.393204 71.6492452 290.393204 71.8302759 290.393204 86.6127017 277.41059 94.1171681"></polyline>
                <path d="M314.695009,83.7447946 L314.695009,83.7447946 C314.819103,83.3912327 315.206319,83.2052117 315.559881,83.329305 C315.561799,83.3299784 315.563715,83.3306604 315.565627,83.331351 L318.022348,84.2185001 L322.050332,74.3672979 C322.192817,74.0188218 322.590821,73.8518337 322.939297,73.9943194 C322.943524,73.9960479 322.947734,73.9978189 322.951926,73.999632 L322.951926,73.999632 C323.308521,74.1538736 323.479725,74.5621445 323.3398,74.9245967 L319.005224,86.1525869 L315.106455,84.6385758 C314.750664,84.5004115 314.568608,84.1049318 314.695009,83.7447946 Z" id="Fill-41" stroke="#007AFF" stroke-width="0.5" fill="#007AFF" stroke-linecap="round" stroke-linejoin="round"></path>
                <g id="Group-18" transform="translate(221.000000, 193.000000)">
                    <g id="Fill-1">
                        <use fill="#0072D8" fill-rule="evenodd" xlink:href="#path-6"></use>
                        <use fill="black" fill-opacity="1" filter="url(#filter-7)" xlink:href="#path-6"></use>
                    </g>
                    <g id="Fill-4">
                        <use fill="#0072D8" fill-rule="evenodd" xlink:href="#path-8"></use>
                        <use fill="black" fill-opacity="1" filter="url(#filter-9)" xlink:href="#path-8"></use>
                    </g>
                    <g id="Fill-6">
                        <use fill="#0072D8" fill-rule="evenodd" xlink:href="#path-10"></use>
                        <use fill="black" fill-opacity="1" filter="url(#filter-11)" xlink:href="#path-10"></use>
                    </g>
                </g>
            </g>
        </g>
    </g>
</svg>